# Blender v2.79 (sub 0) OBJ File: ''
# www.blender.org
o Electrum_Piece_Untitled.001
v -0.342612 0.050000 0.460027
v 0.342612 0.050000 0.460027
v -0.342612 0.050000 -0.460027
v 0.342612 0.050000 -0.460027
v -0.458183 0.050000 -0.328239
v -0.534349 0.050000 -0.164120
v -0.556530 0.050000 -0.000000
v -0.534349 0.050000 0.164120
v -0.458183 0.050000 0.328239
v 0.458183 0.050000 0.328239
v 0.534349 0.050000 0.164120
v 0.556529 0.050000 -0.000000
v 0.534349 0.050000 -0.164120
v 0.458183 0.050000 -0.328239
v -0.373525 0.050000 0.273109
v -0.297302 0.050000 0.360027
v 0.297302 0.050000 0.360027
v 0.373524 0.050000 -0.273109
v 0.297302 0.050000 -0.360027
v -0.297302 0.050000 -0.360027
v -0.373525 0.050000 -0.273109
v -0.437276 0.050000 -0.135741
v -0.455620 0.050000 -0.000000
v -0.437276 0.050000 0.135741
v 0.373524 0.050000 0.273109
v 0.437275 0.050000 0.135741
v 0.455620 0.050000 -0.000000
v 0.437275 0.050000 -0.135741
v -0.342612 -0.050000 0.460027
v 0.342612 -0.050000 0.460027
v -0.342612 -0.050000 -0.460027
v 0.342612 -0.050000 -0.460027
v -0.458183 -0.050000 -0.328239
v -0.534349 -0.050000 -0.164120
v -0.556530 -0.050000 0.000000
v -0.534349 -0.050000 0.164120
v -0.458183 -0.050000 0.328239
v 0.458183 -0.050000 0.328239
v 0.534349 -0.050000 0.164120
v 0.556529 -0.050000 0.000000
v 0.534349 -0.050000 -0.164120
v 0.458183 -0.050000 -0.328239
v -0.373525 -0.050000 0.273109
v -0.297302 -0.050000 0.360027
v 0.297302 -0.050000 0.360027
v 0.373524 -0.050000 -0.273109
v 0.297302 -0.050000 -0.360027
v -0.297302 -0.050000 -0.360027
v -0.373525 -0.050000 -0.273109
v -0.437276 -0.050000 -0.135741
v -0.455620 -0.050000 0.000000
v -0.437276 -0.050000 0.135741
v 0.373524 -0.050000 0.273109
v 0.437275 -0.050000 0.135741
v 0.455620 -0.050000 0.000000
v 0.437275 -0.050000 -0.135741
v -0.373525 0.045000 0.273109
v -0.297302 0.045000 0.360027
v 0.297302 0.045000 0.360027
v 0.373524 0.045000 -0.273109
v 0.297302 0.045000 -0.360027
v -0.297302 0.045000 -0.360027
v -0.373525 0.045000 -0.273109
v -0.437276 0.045000 -0.135741
v -0.455620 0.045000 -0.000000
v -0.437276 0.045000 0.135741
v 0.373524 0.045000 0.273109
v 0.437275 0.045000 0.135741
v 0.455620 0.045000 -0.000000
v 0.437275 0.045000 -0.135741
v -0.373525 -0.045000 0.273109
v -0.297302 -0.045000 0.360027
v 0.297302 -0.045000 0.360027
v 0.373524 -0.045000 -0.273109
v 0.297302 -0.045000 -0.360027
v -0.297302 -0.045000 -0.360027
v -0.373525 -0.045000 -0.273109
v -0.437276 -0.045000 -0.135741
v -0.455620 -0.045000 0.000000
v -0.437276 -0.045000 0.135741
v 0.373524 -0.045000 0.273109
v 0.437275 -0.045000 0.135741
v 0.455620 -0.045000 0.000000
v 0.437275 -0.045000 -0.135741
v -0.297302 0.050000 -0.360027
v -0.297302 0.050000 -0.360027
v -0.373525 0.050000 -0.273109
v -0.373525 0.045000 -0.273109
v -0.297302 0.045000 -0.360027
v -0.297302 0.045000 -0.360027
v -0.297302 0.050000 0.360027
v -0.297302 0.050000 0.360027
v -0.373525 0.050000 0.273109
v -0.458183 0.050000 0.328239
v -0.342612 0.050000 0.460027
v -0.342612 0.050000 0.460027
v 0.342612 0.050000 0.460027
v 0.342612 0.050000 0.460027
v 0.297302 0.050000 0.360027
v 0.297302 0.050000 0.360027
v 0.297302 0.050000 -0.360027
v 0.297302 0.050000 -0.360027
v 0.373524 0.050000 -0.273109
v 0.458183 0.050000 -0.328239
v 0.342612 0.050000 -0.460027
v 0.342612 0.050000 -0.460027
v -0.342612 0.050000 -0.460027
v -0.342612 0.050000 -0.460027
v -0.458183 0.050000 -0.328239
v -0.437276 0.050000 -0.135741
v -0.534349 0.050000 -0.164120
v -0.556530 0.050000 -0.000000
v -0.455620 0.050000 -0.000000
v -0.437276 0.050000 0.135741
v -0.534349 0.050000 0.164120
v 0.458183 0.050000 0.328239
v 0.373524 0.050000 0.273109
v 0.437275 0.050000 0.135741
v 0.534349 0.050000 0.164120
v 0.455620 0.050000 -0.000000
v 0.556529 0.050000 -0.000000
v 0.534349 0.050000 -0.164120
v 0.437275 0.050000 -0.135741
v 0.297302 0.045000 -0.360027
v 0.297302 0.045000 -0.360027
v -0.373525 -0.050000 0.273109
v -0.297302 -0.050000 0.360027
v -0.297302 -0.050000 0.360027
v -0.342612 -0.050000 0.460027
v -0.342612 -0.050000 0.460027
v -0.458183 -0.050000 0.328239
v 0.342612 -0.050000 0.460027
v 0.342612 -0.050000 0.460027
v 0.297302 -0.050000 0.360027
v 0.297302 -0.050000 0.360027
v 0.342612 -0.050000 -0.460027
v 0.342612 -0.050000 -0.460027
v 0.458183 -0.050000 -0.328239
v 0.373524 -0.050000 -0.273109
v 0.297302 -0.050000 -0.360027
v 0.297302 -0.050000 -0.360027
v -0.297302 -0.050000 -0.360027
v -0.297302 -0.050000 -0.360027
v -0.342612 -0.050000 -0.460027
v -0.342612 -0.050000 -0.460027
v -0.458183 -0.050000 -0.328239
v -0.373525 -0.050000 -0.273109
v -0.534349 -0.050000 -0.164120
v -0.437276 -0.050000 -0.135741
v -0.556530 -0.050000 0.000000
v -0.455620 -0.050000 0.000000
v -0.437276 -0.050000 0.135741
v -0.534349 -0.050000 0.164120
v 0.373524 -0.050000 0.273109
v 0.458183 -0.050000 0.328239
v 0.437275 -0.050000 0.135741
v 0.534349 -0.050000 0.164120
v 0.455620 -0.050000 0.000000
v 0.556529 -0.050000 0.000000
v 0.534349 -0.050000 -0.164120
v 0.437275 -0.050000 -0.135741
v 0.437275 0.045000 0.135741
v 0.455620 0.045000 -0.000000
v -0.373525 0.045000 0.273109
v -0.297302 0.045000 0.360027
v -0.297302 0.045000 0.360027
v 0.297302 0.045000 0.360027
v 0.297302 0.045000 0.360027
v 0.437275 0.045000 -0.135741
v 0.373524 0.045000 -0.273109
v -0.437276 0.045000 0.135741
v 0.373524 0.045000 0.273109
v -0.437276 0.045000 -0.135741
v -0.455620 0.045000 -0.000000
v -0.437276 -0.045000 -0.135741
v -0.373525 -0.045000 -0.273109
v -0.297302 -0.045000 -0.360027
v -0.297302 -0.045000 -0.360027
v 0.297302 -0.045000 -0.360027
v 0.297302 -0.045000 -0.360027
v -0.373525 -0.045000 0.273109
v -0.437276 -0.045000 0.135741
v -0.455620 -0.045000 0.000000
v 0.455620 -0.045000 0.000000
v 0.437275 -0.045000 0.135741
v 0.373524 -0.045000 -0.273109
v 0.437275 -0.045000 -0.135741
v 0.373524 -0.045000 0.273109
v 0.297302 -0.045000 0.360027
v 0.297302 -0.045000 0.360027
v -0.297302 -0.045000 0.360027
v -0.297302 -0.045000 0.360027
vt 0.195191 0.852316
vt 0.183445 0.839570
vt 0.184062 0.839154
vt 0.195378 0.851600
vt 0.171757 0.749150
vt 0.195657 0.745071
vt 0.183958 0.757669
vt 0.189252 0.730278
vt 0.290368 0.730567
vt 0.283766 0.745409
vt 0.307716 0.848272
vt 0.283629 0.852566
vt 0.295437 0.839840
vt 0.290090 0.867386
vt 0.188558 0.867115
vt 0.195191 0.852316
vt 0.183445 0.839570
vt 0.171160 0.847986
vt 0.174002 0.818853
vt 0.159665 0.823138
vt 0.156404 0.798278
vt 0.171366 0.798392
vt 0.174288 0.778028
vt 0.160031 0.773502
vt 0.307609 0.749508
vt 0.295403 0.758017
vt 0.304969 0.778533
vt 0.319230 0.773997
vt 0.322719 0.798766
vt 0.307758 0.798918
vt 0.304989 0.819321
vt 0.319321 0.823595
vt 0.283629 0.852566
vt 0.195191 0.852316
vt 0.195378 0.851600
vt 0.283451 0.851848
vt 0.195885 0.700785
vt 0.171983 0.696687
vt 0.184166 0.688188
vt 0.189342 0.715523
vt 0.290492 0.715744
vt 0.284031 0.700856
vt 0.307506 0.597697
vt 0.283609 0.593583
vt 0.290170 0.578787
vt 0.295322 0.606199
vt 0.195419 0.593650
vt 0.188940 0.578820
vt 0.171394 0.597942
vt 0.183692 0.606378
vt 0.174253 0.626920
vt 0.159913 0.622673
vt 0.156630 0.647500
vt 0.171591 0.647331
vt 0.174487 0.667703
vt 0.160236 0.672267
vt 0.308061 0.696549
vt 0.295765 0.688109
vt 0.305211 0.667541
vt 0.319552 0.671788
vt 0.307881 0.647106
vt 0.322842 0.646937
vt 0.304993 0.626710
vt 0.319244 0.622146
vt 0.367551 0.731109
vt 0.367658 0.716319
vt 0.392043 0.731286
vt 0.392150 0.716497
vt 0.418802 0.731480
vt 0.418909 0.716690
vt 0.163321 0.730106
vt 0.163427 0.715319
vt 0.189252 0.730278
vt 0.189342 0.715523
vt 0.290368 0.730567
vt 0.189252 0.730278
vt 0.189342 0.715523
vt 0.290492 0.715744
vt 0.444725 0.731668
vt 0.444832 0.716878
vt 0.546064 0.732401
vt 0.444725 0.731668
vt 0.444832 0.716878
vt 0.546171 0.717612
vt 0.034895 0.729177
vt 0.060926 0.714575
vt 0.060818 0.729365
vt 0.035002 0.714387
vt 0.087684 0.714769
vt 0.087577 0.729559
vt 0.112177 0.714947
vt 0.112070 0.729736
vt 0.136669 0.715124
vt 0.136562 0.729914
vt 0.290368 0.730567
vt 0.290492 0.715744
vt 0.316299 0.730739
vt 0.316407 0.715947
vt 0.343058 0.730932
vt 0.343165 0.716142
vt 0.172108 0.798395
vt 0.304262 0.778756
vt 0.307015 0.798927
vt 0.283573 0.746122
vt 0.184568 0.758093
vt 0.195841 0.745787
vt 0.184062 0.839154
vt 0.304276 0.819115
vt 0.294820 0.839424
vt 0.174997 0.778245
vt 0.294793 0.758442
vt 0.283451 0.851848
vt 0.195378 0.851600
vt 0.174712 0.818641
vt 0.184308 0.606794
vt 0.304285 0.626933
vt 0.174965 0.627126
vt 0.283422 0.594299
vt 0.195602 0.594367
vt 0.175194 0.667480
vt 0.304500 0.667335
vt 0.184776 0.687764
vt 0.172333 0.647323
vt 0.307139 0.647114
vt 0.294712 0.606624
vt 0.295149 0.687693
vt 0.283849 0.700139
vt 0.196072 0.700069
vt 0.174712 0.818641
vt 0.174002 0.818853
vt 0.171366 0.798392
vt 0.172108 0.798395
vt 0.196072 0.700069
vt 0.184166 0.688188
vt 0.184776 0.687764
vt 0.195885 0.700785
vt 0.174288 0.778028
vt 0.174997 0.778245
vt 0.196072 0.700069
vt 0.283849 0.700139
vt 0.284031 0.700856
vt 0.195885 0.700785
vt 0.183958 0.757669
vt 0.184568 0.758093
vt 0.294712 0.606624
vt 0.283422 0.594299
vt 0.283609 0.593583
vt 0.295322 0.606199
vt 0.283766 0.745409
vt 0.295403 0.758017
vt 0.294793 0.758442
vt 0.283573 0.746122
vt 0.283422 0.594299
vt 0.195602 0.594367
vt 0.195419 0.593650
vt 0.283609 0.593583
vt 0.304969 0.778533
vt 0.304262 0.778756
vt 0.195602 0.594367
vt 0.184308 0.606794
vt 0.183692 0.606378
vt 0.195419 0.593650
vt 0.307758 0.798918
vt 0.307015 0.798927
vt 0.174965 0.627126
vt 0.174253 0.626920
vt 0.304989 0.819321
vt 0.304276 0.819115
vt 0.172333 0.647323
vt 0.171591 0.647331
vt 0.295437 0.839840
vt 0.294820 0.839424
vt 0.175194 0.667480
vt 0.174487 0.667703
vt 0.283849 0.700139
vt 0.295149 0.687693
vt 0.295765 0.688109
vt 0.284031 0.700856
vt 0.304500 0.667335
vt 0.305211 0.667541
vt 0.307139 0.647114
vt 0.307881 0.647106
vt 0.304285 0.626933
vt 0.304993 0.626710
vt 0.195657 0.745071
vt 0.195841 0.745787
vt 0.195657 0.745071
vt 0.283766 0.745409
vt 0.283573 0.746122
vt 0.195841 0.745787
vt 0.283629 0.852566
vt 0.283451 0.851848
vn 0.7518 0.0000 0.6593
vn 0.8380 0.0000 0.5457
vn 0.0000 1.0000 -0.0000
vn 0.0000 0.0000 1.0000
vn -0.0000 -1.0000 0.0000
vn 1.0000 0.0000 -0.0000
vn 0.9598 0.0000 -0.2806
vn 0.8380 0.0000 -0.5457
vn -0.8380 0.0000 0.5457
vn -0.7518 0.0000 0.6593
vn 0.7518 0.0000 -0.6593
vn 0.0000 0.0000 -1.0000
vn -0.7518 0.0000 -0.6593
vn -0.8380 0.0000 -0.5457
vn -0.7519 0.0000 -0.6593
vn -0.9598 -0.0000 -0.2806
vn -1.0000 -0.0000 0.0000
vn -0.9598 -0.0000 0.2806
vn 0.9598 0.0000 0.2806
s 1
f 85/1/1 87/2/2 88/3/2
f 85/1/1 88/3/2 89/4/1
f 94/5/3 91/6/3 93/7/3
f 91/6/3 94/5/3 95/8/3
f 95/8/3 97/9/3 91/6/3
f 91/6/3 97/9/3 99/10/3
f 104/11/3 101/12/3 103/13/3
f 101/12/3 104/11/3 105/14/3
f 105/14/3 107/15/3 101/12/3
f 101/12/3 107/15/3 86/16/3
f 21/17/3 86/16/3 109/18/3
f 86/16/3 107/15/3 109/18/3
f 109/18/3 110/19/3 21/17/3
f 110/19/3 109/18/3 111/20/3
f 111/20/3 112/21/3 110/19/3
f 110/19/3 112/21/3 113/22/3
f 112/21/3 114/23/3 113/22/3
f 114/23/3 112/21/3 115/24/3
f 94/5/3 114/23/3 115/24/3
f 114/23/3 94/5/3 93/7/3
f 97/9/3 116/25/3 99/10/3
f 99/10/3 116/25/3 117/26/3
f 116/25/3 118/27/3 117/26/3
f 118/27/3 116/25/3 119/28/3
f 118/27/3 121/29/3 120/30/3
f 121/29/3 118/27/3 119/28/3
f 123/31/3 121/29/3 122/32/3
f 121/29/3 123/31/3 120/30/3
f 103/13/3 123/31/3 104/11/3
f 123/31/3 122/32/3 104/11/3
f 102/33/4 20/34/4 90/35/4
f 102/33/4 90/35/4 124/36/4
f 127/37/5 131/38/5 126/39/5
f 131/38/5 127/37/5 129/40/5
f 132/41/5 129/40/5 127/37/5
f 132/41/5 127/37/5 134/42/5
f 138/43/5 140/44/5 136/45/5
f 140/44/5 138/43/5 139/46/5
f 140/44/5 142/47/5 144/48/5
f 140/44/5 144/48/5 136/45/5
f 146/49/5 144/48/5 142/47/5
f 146/49/5 142/47/5 147/50/5
f 146/49/5 149/51/5 148/52/5
f 149/51/5 146/49/5 147/50/5
f 149/51/5 150/53/5 148/52/5
f 150/53/5 149/51/5 151/54/5
f 152/55/5 150/53/5 151/54/5
f 150/53/5 152/55/5 153/56/5
f 131/38/5 152/55/5 126/39/5
f 152/55/5 131/38/5 153/56/5
f 155/57/5 134/42/5 154/58/5
f 134/42/5 155/57/5 132/41/5
f 156/59/5 155/57/5 154/58/5
f 155/57/5 156/59/5 157/60/5
f 156/59/5 158/61/5 159/62/5
f 156/59/5 159/62/5 157/60/5
f 159/62/5 161/63/5 160/64/5
f 161/63/5 159/62/5 158/61/5
f 138/43/5 160/64/5 161/63/5
f 138/43/5 161/63/5 139/46/5
f 12/65/6 40/66/6 13/67/7
f 13/67/7 40/66/6 41/68/7
f 41/68/7 14/69/8 13/67/7
f 14/69/8 41/68/7 42/70/8
f 9/71/9 37/72/9 96/73/10
f 96/73/10 37/72/9 130/74/10
f 98/75/4 1/76/4 29/77/4
f 98/75/4 29/77/4 133/78/4
f 14/69/8 42/70/8 106/79/11
f 106/79/11 42/70/8 137/80/11
f 108/81/12 4/82/12 32/83/12
f 108/81/12 32/83/12 145/84/12
f 3/85/13 33/86/14 5/87/14
f 33/86/14 3/85/13 31/88/15
f 5/87/14 34/89/16 6/90/16
f 34/89/16 5/87/14 33/86/14
f 6/90/16 35/91/17 7/92/17
f 35/91/17 6/90/16 34/89/16
f 7/92/17 36/93/18 8/94/18
f 36/93/18 7/92/17 35/91/17
f 8/94/18 37/72/9 9/71/9
f 37/72/9 8/94/18 36/93/18
f 2/95/1 30/96/1 10/97/2
f 10/97/2 30/96/1 38/98/2
f 10/97/2 38/98/2 11/99/19
f 11/99/19 38/98/2 39/100/19
f 11/99/19 39/100/19 12/65/6
f 12/65/6 39/100/19 40/66/6
f 174/101/3 162/102/3 163/103/3
f 167/104/3 164/105/3 165/106/3
f 63/107/3 169/108/3 170/109/3
f 162/102/3 171/110/3 164/105/3
f 172/111/3 164/105/3 167/104/3
f 162/102/3 164/105/3 172/111/3
f 169/108/3 174/101/3 163/103/3
f 63/107/3 170/109/3 125/112/3
f 63/107/3 125/112/3 62/113/3
f 173/114/3 169/108/3 63/107/3
f 174/101/3 169/108/3 173/114/3
f 171/110/3 162/102/3 174/101/3
f 176/115/5 187/116/5 175/117/5
f 179/118/5 176/115/5 177/119/5
f 182/120/5 185/121/5 181/122/5
f 183/123/5 185/121/5 182/120/5
f 183/123/5 184/124/5 185/121/5
f 175/117/5 187/116/5 183/123/5
f 186/125/5 176/115/5 179/118/5
f 187/116/5 176/115/5 186/125/5
f 184/124/5 183/123/5 187/116/5
f 181/122/5 185/121/5 188/126/5
f 181/122/5 188/126/5 189/127/5
f 181/122/5 189/127/5 191/128/5
f 64/129/19 87/2/2 22/130/19
f 87/2/2 64/129/19 88/3/2
f 22/130/19 23/131/6 65/132/6
f 22/130/19 65/132/6 64/129/19
f 192/133/11 43/134/8 71/135/8
f 43/134/8 192/133/11 128/136/11
f 23/131/6 24/137/7 66/138/7
f 23/131/6 66/138/7 65/132/6
f 72/139/12 190/140/12 135/141/12
f 72/139/12 135/141/12 44/142/12
f 24/137/7 15/143/8 57/144/8
f 24/137/7 57/144/8 66/138/7
f 74/145/9 180/146/10 141/147/10
f 74/145/9 141/147/10 46/148/9
f 100/149/13 25/150/14 67/151/14
f 100/149/13 67/151/14 168/152/13
f 75/153/4 178/154/4 143/155/4
f 75/153/4 143/155/4 47/156/4
f 26/157/16 67/151/14 25/150/14
f 67/151/14 26/157/16 68/158/16
f 76/159/1 77/160/2 49/161/2
f 76/159/1 49/161/2 48/162/1
f 27/163/17 68/158/16 26/157/16
f 68/158/16 27/163/17 69/164/17
f 77/160/2 78/165/19 50/166/19
f 77/160/2 50/166/19 49/161/2
f 28/167/18 69/164/17 27/163/17
f 69/164/17 28/167/18 70/168/18
f 78/165/19 79/169/6 51/170/6
f 78/165/19 51/170/6 50/166/19
f 18/171/9 70/168/18 28/167/18
f 70/168/18 18/171/9 60/172/9
f 79/169/6 80/173/7 52/174/7
f 79/169/6 52/174/7 51/170/6
f 80/173/7 71/135/8 43/134/8
f 80/173/7 43/134/8 52/174/7
f 73/175/13 81/176/14 53/177/14
f 73/175/13 53/177/14 45/178/13
f 82/179/16 53/177/14 81/176/14
f 53/177/14 82/179/16 54/180/16
f 83/181/17 54/180/16 82/179/16
f 54/180/16 83/181/17 55/182/17
f 84/183/18 55/182/17 83/181/17
f 55/182/17 84/183/18 56/184/18
f 74/145/9 56/184/18 84/183/18
f 56/184/18 74/145/9 46/148/9
f 15/143/8 92/185/11 166/186/11
f 15/143/8 166/186/11 57/144/8
f 16/187/12 17/188/12 59/189/12
f 16/187/12 59/189/12 58/190/12
f 18/171/9 19/191/10 61/192/10
f 18/171/9 61/192/10 60/172/9
