# Blender v2.79 (sub 0) OBJ File: ''
# www.blender.org
o Gold_Piece_Untitled.003
v -0.525736 0.050000 0.525736
v 0.525736 0.050000 0.525736
v -0.525736 0.050000 -0.525736
v 0.525736 0.050000 -0.525736
v -0.393059 0.050000 -0.262868
v -0.349213 0.050000 -0.000000
v -0.393059 0.050000 0.262868
v 0.393060 0.050000 0.262868
v 0.349214 0.050000 -0.000000
v 0.393060 0.050000 -0.262868
v 0.525736 0.050000 -0.394302
v -0.525736 0.050000 -0.394302
v -0.525736 0.050000 0.394302
v 0.525736 0.050000 0.394302
v -0.444863 0.050000 -0.328585
v 0.444864 0.050000 -0.328585
v 0.444864 0.050000 0.328585
v -0.444863 0.050000 0.328585
v -0.360428 0.050000 -0.131434
v 0.360428 0.050000 -0.131434
v -0.360428 0.050000 0.131434
v 0.360428 0.050000 0.131434
v -0.439203 0.050000 0.437345
v 0.439204 0.050000 0.437345
v 0.439204 0.050000 -0.437345
v -0.439203 0.050000 -0.437345
v -0.382846 0.050000 -0.389690
v -0.313566 0.050000 -0.301804
v -0.274792 0.050000 -0.145626
v -0.262367 0.050000 -0.000000
v -0.274792 0.050000 0.145626
v -0.313566 0.050000 0.301804
v 0.382847 0.050000 0.389690
v 0.313567 0.050000 0.301804
v 0.274793 0.050000 0.145626
v 0.262367 0.050000 -0.000000
v 0.274793 0.050000 -0.145626
v 0.313567 0.050000 -0.301804
v 0.382847 0.050000 -0.389690
v -0.382846 0.050000 0.389690
v -0.525736 -0.050000 0.525736
v 0.525736 -0.050000 0.525736
v -0.525736 -0.050000 -0.525736
v 0.525736 -0.050000 -0.525736
v -0.393059 -0.050000 -0.262868
v -0.349213 -0.050000 0.000000
v -0.393059 -0.050000 0.262868
v 0.393060 -0.050000 0.262868
v 0.349214 -0.050000 0.000000
v 0.393060 -0.050000 -0.262868
v 0.525736 -0.050000 -0.394302
v -0.525736 -0.050000 -0.394302
v -0.525736 -0.050000 0.394302
v 0.525736 -0.050000 0.394302
v -0.444863 -0.050000 -0.328585
v 0.444864 -0.050000 -0.328585
v 0.444864 -0.050000 0.328585
v -0.444863 -0.050000 0.328585
v -0.360428 -0.050000 -0.131434
v 0.360428 -0.050000 -0.131434
v -0.360428 -0.050000 0.131434
v 0.360428 -0.050000 0.131434
v -0.439203 -0.050000 0.437345
v 0.439204 -0.050000 0.437345
v 0.439204 -0.050000 -0.437345
v -0.439203 -0.050000 -0.437345
v -0.382846 -0.050000 -0.389690
v -0.313566 -0.050000 -0.301804
v -0.274792 -0.050000 -0.145626
v -0.262367 -0.050000 0.000000
v -0.274792 -0.050000 0.145626
v -0.313566 -0.050000 0.301804
v 0.382847 -0.050000 0.389690
v 0.313567 -0.050000 0.301804
v 0.274793 -0.050000 0.145626
v 0.262367 -0.050000 0.000000
v 0.274793 -0.050000 -0.145626
v 0.313567 -0.050000 -0.301804
v 0.382847 -0.050000 -0.389690
v -0.382846 -0.050000 0.389690
v -0.382846 0.045000 -0.389690
v -0.313566 0.045000 -0.301804
v -0.274792 0.045000 -0.145626
v -0.262367 0.045000 -0.000000
v -0.274792 0.045000 0.145626
v -0.313566 0.045000 0.301804
v 0.382847 0.045000 0.389690
v 0.313567 0.045000 0.301804
v 0.274793 0.045000 0.145626
v 0.262367 0.045000 -0.000000
v 0.274793 0.045000 -0.145626
v 0.313567 0.045000 -0.301804
v 0.382847 0.045000 -0.389690
v 0.439204 0.045000 -0.437345
v -0.382846 0.045000 0.389690
v -0.439203 0.045000 0.437345
v -0.439203 0.045000 -0.437345
v 0.439204 0.045000 0.437345
v -0.382846 -0.045000 -0.389690
v -0.313566 -0.045000 -0.301804
v -0.274792 -0.045000 -0.145626
v -0.262367 -0.045000 0.000000
v -0.274792 -0.045000 0.145626
v -0.313566 -0.045000 0.301804
v 0.382847 -0.045000 0.389690
v 0.313567 -0.045000 0.301804
v 0.274793 -0.045000 0.145626
v 0.262367 -0.045000 0.000000
v 0.274793 -0.045000 -0.145626
v 0.313567 -0.045000 -0.301804
v 0.382847 -0.045000 -0.389690
v 0.439204 -0.045000 -0.437345
v -0.382846 -0.045000 0.389690
v -0.439203 -0.045000 0.437345
v -0.439203 -0.045000 -0.437345
v 0.439204 -0.045000 0.437345
v -0.313566 0.050000 -0.301804
v -0.274792 0.050000 -0.145626
v -0.274792 0.045000 -0.145626
v -0.313566 0.045000 -0.301804
v 0.274793 -0.045000 -0.145626
v 0.313567 -0.045000 -0.301804
v 0.313567 -0.050000 -0.301804
v 0.274793 -0.050000 -0.145626
v -0.525736 0.050000 0.394302
v -0.525736 0.050000 0.394302
v -0.525736 0.050000 0.525736
v -0.525736 0.050000 0.525736
v 0.525736 0.050000 0.525736
v 0.525736 0.050000 0.525736
v 0.439204 0.050000 0.437345
v 0.439204 0.050000 0.437345
v -0.439203 0.050000 0.437345
v -0.439203 0.050000 0.437345
v 0.525736 0.050000 -0.394302
v 0.525736 0.050000 -0.394302
v 0.525736 0.050000 -0.525736
v 0.525736 0.050000 -0.525736
v -0.439203 0.050000 -0.437345
v -0.439203 0.050000 -0.437345
v 0.439204 0.050000 -0.437345
v 0.439204 0.050000 -0.437345
v -0.525736 0.050000 -0.525736
v -0.525736 0.050000 -0.525736
v -0.382846 0.050000 -0.389690
v -0.444863 0.050000 -0.328585
v -0.393059 0.050000 -0.262868
v -0.360428 0.050000 -0.131434
v -0.349213 0.050000 -0.000000
v -0.262367 0.050000 -0.000000
v -0.360428 0.050000 0.131434
v -0.393059 0.050000 0.262868
v -0.313566 0.050000 0.301804
v -0.274792 0.050000 0.145626
v 0.313567 0.050000 0.301804
v 0.382847 0.050000 0.389690
v 0.444864 0.050000 0.328585
v 0.393060 0.050000 0.262868
v 0.262367 0.050000 -0.000000
v 0.274793 0.050000 0.145626
v 0.360428 0.050000 0.131434
v 0.349214 0.050000 -0.000000
v 0.313567 0.050000 -0.301804
v 0.274793 0.050000 -0.145626
v 0.360428 0.050000 -0.131434
v 0.393060 0.050000 -0.262868
v 0.382847 0.050000 -0.389690
v 0.444864 0.050000 -0.328585
v -0.525736 0.050000 -0.394302
v -0.525736 0.050000 -0.394302
v -0.444863 0.050000 0.328585
v -0.382846 0.050000 0.389690
v 0.525736 0.050000 0.394302
v 0.525736 0.050000 0.394302
v 0.439204 -0.045000 -0.437345
v 0.439204 -0.045000 -0.437345
v -0.439203 -0.045000 -0.437345
v -0.439203 -0.045000 -0.437345
v -0.439203 -0.050000 -0.437345
v -0.439203 -0.050000 -0.437345
v 0.439204 -0.050000 -0.437345
v 0.439204 -0.050000 -0.437345
v -0.382846 0.045000 0.389690
v -0.313566 0.045000 0.301804
v -0.525736 -0.050000 0.525736
v -0.525736 -0.050000 0.525736
v -0.525736 -0.050000 0.394302
v -0.525736 -0.050000 0.394302
v 0.525736 -0.050000 0.525736
v 0.525736 -0.050000 0.525736
v -0.439203 -0.050000 0.437345
v -0.439203 -0.050000 0.437345
v 0.439204 -0.050000 0.437345
v 0.439204 -0.050000 0.437345
v 0.525736 -0.050000 -0.525736
v 0.525736 -0.050000 -0.525736
v 0.525736 -0.050000 -0.394302
v 0.525736 -0.050000 -0.394302
v -0.525736 -0.050000 -0.525736
v -0.525736 -0.050000 -0.525736
v -0.382846 -0.050000 -0.389690
v -0.313566 -0.050000 -0.301804
v -0.393059 -0.050000 -0.262868
v -0.444863 -0.050000 -0.328585
v -0.274792 -0.050000 -0.145626
v -0.262367 -0.050000 0.000000
v -0.349213 -0.050000 0.000000
v -0.360428 -0.050000 -0.131434
v -0.393059 -0.050000 0.262868
v -0.360428 -0.050000 0.131434
v -0.274792 -0.050000 0.145626
v -0.313566 -0.050000 0.301804
v 0.393060 -0.050000 0.262868
v 0.444864 -0.050000 0.328585
v 0.382847 -0.050000 0.389690
v 0.313567 -0.050000 0.301804
v 0.349214 -0.050000 0.000000
v 0.360428 -0.050000 0.131434
v 0.274793 -0.050000 0.145626
v 0.262367 -0.050000 0.000000
v 0.393060 -0.050000 -0.262868
v 0.360428 -0.050000 -0.131434
v 0.382847 -0.050000 -0.389690
v 0.444864 -0.050000 -0.328585
v -0.525736 -0.050000 -0.394302
v -0.525736 -0.050000 -0.394302
v -0.444863 -0.050000 0.328585
v -0.382846 -0.050000 0.389690
v 0.525736 -0.050000 0.394302
v 0.525736 -0.050000 0.394302
v 0.274793 -0.045000 0.145626
v 0.262367 -0.045000 0.000000
v 0.262367 0.045000 -0.000000
v 0.274793 0.045000 -0.145626
v -0.439203 0.045000 0.437345
v -0.439203 0.045000 0.437345
v 0.439204 0.045000 0.437345
v 0.439204 0.045000 0.437345
v 0.382847 0.045000 0.389690
v 0.313567 0.045000 0.301804
v -0.262367 0.045000 -0.000000
v -0.274792 0.045000 0.145626
v 0.274793 0.045000 0.145626
v 0.313567 0.045000 -0.301804
v 0.382847 0.045000 -0.389690
v 0.439204 0.045000 -0.437345
v 0.439204 0.045000 -0.437345
v -0.439203 0.045000 -0.437345
v -0.439203 0.045000 -0.437345
v -0.382846 0.045000 -0.389690
v -0.262367 -0.045000 0.000000
v -0.274792 -0.045000 -0.145626
v 0.382847 -0.045000 -0.389690
v -0.439203 -0.045000 0.437345
v -0.439203 -0.045000 0.437345
v -0.382846 -0.045000 0.389690
v -0.313566 -0.045000 0.301804
v -0.274792 -0.045000 0.145626
v -0.313566 -0.045000 -0.301804
v -0.382846 -0.045000 -0.389690
v 0.313567 -0.045000 0.301804
v 0.382847 -0.045000 0.389690
v 0.439204 -0.045000 0.437345
v 0.439204 -0.045000 0.437345
vt 0.180545 0.292961
vt 0.185047 0.274749
vt 0.185630 0.274868
vt 0.181104 0.293195
vt 0.261074 0.089377
vt 0.256218 0.107395
vt 0.255646 0.107242
vt 0.261602 0.089664
vt 0.170067 0.205816
vt 0.159305 0.209548
vt 0.160024 0.195443
vt 0.278036 0.196416
vt 0.268551 0.206701
vt 0.266386 0.310874
vt 0.277174 0.307476
vt 0.276158 0.321193
vt 0.168543 0.309601
vt 0.159039 0.319869
vt 0.173098 0.303412
vt 0.170653 0.289004
vt 0.180545 0.292961
vt 0.165038 0.297850
vt 0.176551 0.257494
vt 0.185047 0.274749
vt 0.174923 0.273052
vt 0.186802 0.257708
vt 0.175609 0.241976
vt 0.172013 0.226494
vt 0.185707 0.240667
vt 0.181680 0.222590
vt 0.256682 0.223537
vt 0.264020 0.212901
vt 0.266686 0.227404
vt 0.272227 0.218393
vt 0.250465 0.258939
vt 0.252224 0.241828
vt 0.260740 0.259185
vt 0.262384 0.243542
vt 0.251481 0.275835
vt 0.265071 0.290310
vt 0.255285 0.293763
vt 0.261599 0.274706
vt 0.270032 0.299052
vt 0.261781 0.304121
vt 0.157784 0.306436
vt 0.166660 0.218020
vt 0.174654 0.212736
vt 0.279415 0.209700
vt 0.274053 0.074248
vt 0.177454 0.067907
vt 0.177097 0.067416
vt 0.274474 0.073761
vt 0.174654 0.212736
vt 0.182211 0.222330
vt 0.181680 0.222590
vt 0.175192 0.212548
vt 0.170059 0.173438
vt 0.159914 0.183789
vt 0.159122 0.169889
vt 0.277895 0.184937
vt 0.268359 0.174615
vt 0.274474 0.073761
vt 0.284667 0.064252
vt 0.284858 0.077770
vt 0.177097 0.067416
vt 0.168113 0.056430
vt 0.187175 0.085094
vt 0.177201 0.088024
vt 0.181276 0.074370
vt 0.172707 0.078953
vt 0.179957 0.119616
vt 0.190022 0.103312
vt 0.190161 0.120399
vt 0.179875 0.103922
vt 0.187646 0.137536
vt 0.172522 0.151707
vt 0.177604 0.135317
vt 0.182525 0.155951
vt 0.263904 0.168370
vt 0.267010 0.155037
vt 0.271989 0.163196
vt 0.257379 0.158610
vt 0.263892 0.124707
vt 0.264169 0.139923
vt 0.254088 0.140803
vt 0.253699 0.124077
vt 0.256218 0.107395
vt 0.261602 0.089664
vt 0.271201 0.094065
vt 0.266206 0.109528
vt 0.277214 0.085670
vt 0.269570 0.079695
vt 0.166045 0.069949
vt 0.166604 0.160997
vt 0.174802 0.166673
vt 0.279080 0.171418
vt 0.253115 0.124043
vt 0.254088 0.140803
vt 0.253511 0.140900
vt 0.253699 0.124077
vt 0.345766 0.183873
vt 0.361204 0.195216
vt 0.345940 0.195445
vt 0.361031 0.183644
vt 0.092190 0.195962
vt 0.107345 0.184274
vt 0.107441 0.195835
vt 0.092094 0.184400
vt 0.315004 0.195908
vt 0.314831 0.184337
vt 0.330675 0.195674
vt 0.330502 0.184102
vt 0.144823 0.195530
vt 0.159914 0.183789
vt 0.160024 0.195443
vt 0.144724 0.183958
vt 0.278036 0.196416
vt 0.160024 0.195443
vt 0.159914 0.183789
vt 0.277895 0.184937
vt 0.398618 0.194655
vt 0.398444 0.183083
vt 0.413827 0.194428
vt 0.413653 0.182856
vt 0.535502 0.192604
vt 0.413827 0.194428
vt 0.413653 0.182856
vt 0.535329 0.181032
vt 0.051607 0.196298
vt 0.051511 0.184736
vt 0.061282 0.196218
vt 0.061186 0.184656
vt 0.076939 0.196088
vt 0.076843 0.184526
vt 0.123002 0.184144
vt 0.123099 0.195705
vt 0.305320 0.196053
vt 0.305148 0.184483
vt 0.376875 0.194981
vt 0.376702 0.183409
vt 0.386559 0.194836
vt 0.386385 0.183264
vt 0.398618 0.194655
vt 0.398444 0.183083
vt 0.024268 0.184962
vt 0.039559 0.196398
vt 0.024363 0.196524
vt 0.039463 0.184836
vt 0.132774 0.195626
vt 0.132677 0.184063
vt 0.144823 0.195530
vt 0.144724 0.183958
vt 0.278036 0.196416
vt 0.277895 0.184937
vt 0.293259 0.196229
vt 0.293091 0.184667
vt 0.039559 0.196398
vt 0.039463 0.184836
vt 0.293259 0.196229
vt 0.293091 0.184667
vt 0.250899 0.275939
vt 0.187389 0.257717
vt 0.249877 0.258941
vt 0.263416 0.212787
vt 0.170490 0.206302
vt 0.268154 0.207210
vt 0.182211 0.222330
vt 0.256127 0.223285
vt 0.251639 0.241699
vt 0.186284 0.240552
vt 0.175192 0.212548
vt 0.185630 0.274868
vt 0.181104 0.293195
vt 0.254742 0.293987
vt 0.261234 0.304306
vt 0.173697 0.303529
vt 0.266005 0.310392
vt 0.168943 0.309104
vt 0.190609 0.103242
vt 0.255646 0.107242
vt 0.190744 0.120427
vt 0.261074 0.089377
vt 0.187732 0.084907
vt 0.268985 0.079538
vt 0.175408 0.166872
vt 0.263353 0.168511
vt 0.170478 0.172883
vt 0.256843 0.158845
vt 0.183067 0.156241
vt 0.188223 0.137687
vt 0.253511 0.140900
vt 0.253115 0.124043
vt 0.181834 0.074224
vt 0.177454 0.067907
vt 0.274053 0.074248
vt 0.267979 0.174164
vt 0.274053 0.074248
vt 0.269570 0.079695
vt 0.268985 0.079538
vt 0.274474 0.073761
vt 0.251481 0.275835
vt 0.249877 0.258941
vt 0.250465 0.258939
vt 0.250899 0.275939
vt 0.170478 0.172883
vt 0.267979 0.174164
vt 0.268359 0.174615
vt 0.170059 0.173438
vt 0.175408 0.166872
vt 0.170478 0.172883
vt 0.170059 0.173438
vt 0.174802 0.166673
vt 0.186802 0.257708
vt 0.185707 0.240667
vt 0.186284 0.240552
vt 0.187389 0.257717
vt 0.263353 0.168511
vt 0.268359 0.174615
vt 0.267979 0.174164
vt 0.263904 0.168370
vt 0.252224 0.241828
vt 0.256127 0.223285
vt 0.256682 0.223537
vt 0.251639 0.241699
vt 0.182525 0.155951
vt 0.183067 0.156241
vt 0.187732 0.084907
vt 0.190609 0.103242
vt 0.190022 0.103312
vt 0.187175 0.085094
vt 0.190744 0.120427
vt 0.188223 0.137687
vt 0.187646 0.137536
vt 0.190161 0.120399
vt 0.257379 0.158610
vt 0.256843 0.158845
vt 0.168543 0.309601
vt 0.173098 0.303412
vt 0.173697 0.303529
vt 0.168943 0.309104
vt 0.177454 0.067907
vt 0.181834 0.074224
vt 0.181276 0.074370
vt 0.177097 0.067416
vt 0.264020 0.212901
vt 0.263416 0.212787
vt 0.266386 0.310874
vt 0.168543 0.309601
vt 0.168943 0.309104
vt 0.266005 0.310392
vt 0.255285 0.293763
vt 0.254742 0.293987
vt 0.266005 0.310392
vt 0.261781 0.304121
vt 0.266386 0.310874
vt 0.261234 0.304306
vt 0.170067 0.205816
vt 0.268551 0.206701
vt 0.268154 0.207210
vt 0.170490 0.206302
vt 0.170067 0.205816
vt 0.170490 0.206302
vt 0.268154 0.207210
vt 0.268551 0.206701
vn 0.8981 0.0000 -0.4399
vn 0.9865 -0.0000 -0.1635
vn 0.9916 0.0468 -0.1205
vn 0.8835 0.1792 -0.4327
vn -0.8358 -0.1329 -0.5327
vn -0.9865 0.0000 -0.1635
vn -0.9919 -0.0489 -0.1176
vn -0.8981 0.0000 -0.4399
vn -0.0000 1.0000 -0.0000
vn 0.0000 0.0000 1.0000
vn 0.7192 0.0000 0.6949
vn 0.8841 0.1757 0.4330
vn 0.8981 0.0000 0.4399
vn 0.6777 0.0604 0.7328
vn 0.0000 -1.0000 0.0000
vn -0.9976 -0.0507 -0.0465
vn -0.9865 0.0000 0.1635
vn -0.9768 -0.0488 0.2086
vn -1.0000 0.0000 -0.0000
vn 1.0000 0.0000 -0.0000
vn 0.9865 0.0000 0.1635
vn 0.0000 0.0000 -1.0000
vn -0.7123 0.0000 0.7018
vn -0.8981 -0.0000 0.4399
vn 0.7123 0.0000 -0.7018
vn 0.7123 0.0000 0.7018
vn 0.6306 0.0000 0.7761
vn -0.7123 0.0000 -0.7018
vn -0.6306 0.0000 -0.7761
vn -0.6306 0.0000 0.7761
vn 0.6306 0.0000 -0.7761
vn -0.0252 0.9977 0.0631
vn -0.0062 0.9973 0.0730
vn -0.0463 0.9978 -0.0472
vn -0.0753 0.9965 -0.0356
vn 0.1426 0.9873 0.0698
vn -0.0842 0.9877 -0.1317
vn -0.0240 0.9979 -0.0601
vn 0.0132 0.9979 -0.0641
vn 0.0790 0.9969 -0.0022
vn 0.0358 0.9981 -0.0499
vn 0.1462 0.9867 -0.0716
vn -0.0953 0.9842 0.1491
vn -0.0716 0.9969 0.0313
vn 0.0726 0.9970 0.0265
vn 0.0132 -0.9979 0.0641
vn -0.0372 -0.9979 -0.0530
vn 0.0513 -0.9973 -0.0523
vn -0.1477 -0.9877 0.0511
vn 0.0772 -0.9862 0.1467
vn -0.0833 -0.9965 0.0024
vn 0.0686 -0.9972 -0.0300
vn -0.0684 -0.9971 -0.0324
vn -0.0840 -0.9836 -0.1597
vn 0.0899 -0.9860 -0.1407
vn -0.0114 -0.9979 0.0644
vn -0.0523 -0.9979 -0.0382
vn -0.0469 -0.9978 0.0467
vn 0.0689 -0.9972 0.0301
vn -0.6457 0.0000 -0.7636
vn -0.7192 0.0000 -0.6949
vn -0.6754 -0.0636 -0.7347
vn -0.9976 0.0502 0.0471
vn -0.9730 0.0196 -0.2299
vn 0.6680 -0.0350 0.7433
vn 0.6457 0.0000 0.7636
vn 0.9732 0.0076 0.2297
vn 0.9971 0.0000 -0.0763
vn -0.6667 -0.0334 0.7445
vn -0.6457 0.0000 0.7636
vn -0.7192 0.0000 0.6949
vn -0.8115 0.0490 0.5823
vn -0.9738 0.0186 0.2268
vn 0.8064 -0.0514 0.5892
vn 0.8046 -0.0384 -0.5926
vn 0.9732 -0.0076 -0.2297
vn 0.9971 -0.0556 0.0522
vn 0.9953 -0.0045 0.0963
vn -0.7961 -0.0414 0.6038
vn 0.6457 0.0000 -0.7636
vn 0.7192 0.0000 -0.6949
vn 0.6679 0.0402 -0.7431
vn 0.6679 -0.0351 -0.7434
vn -0.6617 0.0365 0.7489
vn -0.7999 0.0545 -0.5976
vn -0.6658 0.0365 -0.7453
s 1
f 117/1/1 118/2/2 119/3/3
f 117/1/1 119/3/3 120/4/4
f 122/5/5 124/6/6 121/7/7
f 124/6/6 122/5/5 123/8/8
f 133/9/9 125/10/9 127/11/9
f 127/11/9 129/12/9 133/9/9
f 133/9/9 129/12/9 131/13/9
f 141/14/9 135/15/9 137/16/9
f 137/16/9 139/17/9 141/14/9
f 139/17/9 137/16/9 143/18/9
f 145/19/9 147/20/9 28/21/9
f 147/20/9 145/19/9 146/22/9
f 149/23/9 29/24/9 148/25/9
f 29/24/9 149/23/9 150/26/9
f 151/27/9 152/28/9 154/29/9
f 153/30/9 154/29/9 152/28/9
f 155/31/9 156/32/9 158/33/9
f 156/32/9 157/34/9 158/33/9
f 159/35/9 160/36/9 162/37/9
f 162/37/9 160/36/9 161/38/9
f 164/39/9 166/40/9 163/41/9
f 166/40/9 164/39/9 165/42/9
f 168/43/9 141/14/9 167/44/9
f 141/14/9 168/43/9 135/15/9
f 139/17/9 143/18/9 169/45/9
f 133/9/9 171/46/9 125/10/9
f 171/46/9 133/9/9 172/47/9
f 131/13/9 129/12/9 173/48/9
f 146/22/9 139/17/9 169/45/9
f 139/17/9 146/22/9 145/19/9
f 166/40/9 167/44/9 163/41/9
f 167/44/9 166/40/9 168/43/9
f 131/13/9 173/48/9 157/34/9
f 131/13/9 157/34/9 156/32/9
f 172/47/9 152/28/9 171/46/9
f 152/28/9 172/47/9 153/30/9
f 147/20/9 29/24/9 28/21/9
f 29/24/9 147/20/9 148/25/9
f 164/39/9 162/37/9 165/42/9
f 162/37/9 164/39/9 159/35/9
f 149/23/9 154/29/9 150/26/9
f 154/29/9 149/23/9 151/27/9
f 160/36/9 158/33/9 161/38/9
f 158/33/9 160/36/9 155/31/9
f 175/49/10 177/50/10 179/51/10
f 175/49/10 179/51/10 181/52/10
f 40/53/11 184/54/12 32/55/13
f 184/54/12 40/53/11 183/56/14
f 191/57/15 185/58/15 187/59/15
f 189/60/15 185/58/15 191/57/15
f 189/60/15 191/57/15 193/61/15
f 182/62/15 195/63/15 197/64/15
f 180/65/15 195/63/15 182/62/15
f 195/63/15 180/65/15 199/66/15
f 202/67/15 203/68/15 201/69/15
f 201/69/15 203/68/15 204/70/15
f 207/71/15 205/72/15 206/73/15
f 205/72/15 207/71/15 208/74/15
f 211/75/15 209/76/15 210/77/15
f 209/76/15 211/75/15 212/78/15
f 215/79/15 213/80/15 214/81/15
f 213/80/15 215/79/15 216/82/15
f 217/83/15 218/84/15 219/85/15
f 219/85/15 220/86/15 217/83/15
f 77/87/15 78/88/15 221/89/15
f 77/87/15 221/89/15 222/90/15
f 182/62/15 224/91/15 223/92/15
f 224/91/15 182/62/15 197/64/15
f 180/65/15 225/93/15 199/66/15
f 227/94/15 191/57/15 187/59/15
f 191/57/15 227/94/15 228/95/15
f 193/61/15 229/96/15 189/60/15
f 201/69/15 204/70/15 180/65/15
f 180/65/15 204/70/15 225/93/15
f 223/92/15 221/89/15 78/88/15
f 221/89/15 223/92/15 224/91/15
f 214/81/15 229/96/15 193/61/15
f 214/81/15 193/61/15 215/79/15
f 209/76/15 228/95/15 227/94/15
f 228/95/15 209/76/15 212/78/15
f 205/72/15 203/68/15 202/67/15
f 203/68/15 205/72/15 208/74/15
f 217/83/15 77/87/15 222/90/15
f 77/87/15 217/83/15 220/86/15
f 211/75/15 207/71/15 206/73/15
f 207/71/15 211/75/15 210/77/15
f 213/80/15 219/85/15 218/84/15
f 219/85/15 213/80/15 216/82/15
f 232/97/16 75/98/17 231/99/18
f 75/98/17 232/97/16 76/100/19
f 49/101/20 20/102/21 9/103/20
f 20/102/21 49/101/20 60/104/21
f 6/105/19 61/106/6 21/107/6
f 61/106/6 6/105/19 46/108/19
f 8/109/1 48/110/1 22/111/2
f 22/111/2 48/110/1 62/112/2
f 126/113/19 186/114/19 128/115/19
f 186/114/19 126/113/19 188/116/19
f 130/117/10 1/118/10 41/119/10
f 130/117/10 41/119/10 190/120/10
f 136/121/20 198/122/20 138/123/20
f 138/123/20 198/122/20 196/124/20
f 144/125/22 4/126/22 44/127/22
f 144/125/22 44/127/22 200/128/22
f 15/129/23 55/130/23 5/131/24
f 5/131/24 55/130/23 45/132/24
f 19/133/17 46/108/19 6/105/19
f 46/108/19 19/133/17 59/134/17
f 21/107/6 47/135/8 7/136/8
f 47/135/8 21/107/6 61/106/6
f 17/137/25 48/110/1 8/109/1
f 48/110/1 17/137/25 57/138/25
f 62/112/2 9/103/20 22/111/2
f 9/103/20 62/112/2 49/101/20
f 20/102/21 60/104/21 10/139/13
f 10/139/13 60/104/21 50/140/13
f 16/141/26 56/142/26 11/143/27
f 11/143/27 56/142/26 51/144/27
f 43/145/19 170/146/19 3/147/19
f 170/146/19 43/145/19 226/148/19
f 18/149/28 58/150/28 13/151/29
f 13/151/29 58/150/28 53/152/29
f 2/153/20 42/154/20 174/155/20
f 174/155/20 42/154/20 230/156/20
f 12/157/30 52/158/30 15/129/23
f 15/129/23 52/158/30 55/130/23
f 10/139/13 56/142/26 16/141/26
f 56/142/26 10/139/13 50/140/13
f 14/159/31 57/138/25 17/137/25
f 57/138/25 14/159/31 54/160/31
f 7/136/8 47/135/8 18/149/28
f 18/149/28 47/135/8 58/150/28
f 5/131/24 59/134/17 19/133/17
f 59/134/17 5/131/24 45/132/24
f 234/161/32 241/162/33 233/163/34
f 239/164/35 235/165/9 237/166/9
f 86/167/36 239/164/35 240/168/37
f 243/169/38 241/162/33 242/170/39
f 239/164/35 86/167/36 95/171/40
f 242/170/39 240/168/37 243/169/38
f 83/172/41 234/161/32 82/173/42
f 244/174/43 82/173/42 234/161/32
f 245/175/44 250/176/45 244/174/43
f 246/177/9 248/178/9 245/175/44
f 250/176/45 245/175/44 248/178/9
f 82/173/42 244/174/43 250/176/45
f 241/162/33 243/169/38 233/163/34
f 241/162/33 234/161/32 83/172/41
f 240/168/37 242/170/39 86/167/36
f 235/165/9 239/164/35 95/171/40
f 252/179/46 109/180/47 251/181/48
f 110/182/49 259/183/50 253/184/51
f 256/185/52 262/186/53 254/187/15
f 261/188/54 256/185/52 257/189/55
f 261/188/54 257/189/55 258/190/56
f 107/191/57 251/181/48 108/192/58
f 259/183/50 110/182/49 252/179/46
f 253/184/51 259/183/50 260/193/59
f 253/184/51 260/193/59 178/194/15
f 253/184/51 178/194/15 176/195/15
f 251/181/48 107/191/57 258/190/56
f 109/180/47 252/179/46 110/182/49
f 251/181/48 109/180/47 108/192/58
f 261/188/54 258/190/56 107/191/57
f 262/186/53 256/185/52 261/188/54
f 263/196/15 254/187/15 262/186/53
f 112/197/60 79/198/61 111/199/62
f 79/198/61 112/197/60 65/200/60
f 37/201/6 90/202/63 36/203/19
f 90/202/63 37/201/6 91/204/64
f 255/205/22 264/206/22 194/207/22
f 255/205/22 194/207/22 192/208/22
f 113/209/65 114/210/66 63/211/66
f 113/209/65 63/211/66 80/212/11
f 30/213/20 31/214/21 85/215/67
f 30/213/20 85/215/67 84/216/68
f 105/217/69 64/218/70 116/219/70
f 64/218/70 105/217/69 73/220/71
f 35/221/17 88/222/72 34/223/24
f 88/222/72 35/221/17 89/224/73
f 122/5/5 111/199/62 79/198/61
f 122/5/5 79/198/61 123/8/8
f 113/209/65 72/225/13 104/226/74
f 72/225/13 113/209/65 80/212/11
f 100/227/75 101/228/76 69/229/2
f 100/227/75 69/229/2 68/230/1
f 121/7/7 76/100/19 232/97/16
f 76/100/19 121/7/7 124/6/6
f 102/231/77 103/232/78 71/233/21
f 102/231/77 71/233/21 70/234/20
f 231/99/18 74/235/24 106/236/79
f 74/235/24 231/99/18 75/98/17
f 140/237/80 27/238/81 81/239/82
f 140/237/80 81/239/82 249/240/80
f 115/241/80 99/242/83 67/243/81
f 115/241/80 67/243/81 66/244/80
f 27/238/81 117/1/1 120/4/4
f 27/238/81 120/4/4 81/239/82
f 118/2/2 30/213/20 84/216/68
f 118/2/2 84/216/68 119/3/3
f 31/214/21 32/55/13 184/54/12
f 31/214/21 184/54/12 85/215/67
f 88/222/72 33/245/71 34/223/24
f 33/245/71 88/222/72 87/246/84
f 36/203/19 89/224/73 35/221/17
f 89/224/73 36/203/19 90/202/63
f 142/247/10 26/248/10 97/249/10
f 142/247/10 97/249/10 247/250/10
f 38/251/8 91/204/64 37/201/6
f 91/204/64 38/251/8 92/252/85
f 94/253/60 39/254/61 25/255/60
f 39/254/61 94/253/60 93/256/86
f 134/257/22 132/258/22 238/259/22
f 134/257/22 238/259/22 236/260/22
f 99/242/83 100/227/75 68/230/1
f 99/242/83 68/230/1 67/243/81
f 40/53/11 23/261/66 96/262/66
f 40/53/11 96/262/66 183/56/14
f 33/245/71 98/263/70 24/264/70
f 98/263/70 33/245/71 87/246/84
f 101/228/76 102/231/77 70/234/20
f 101/228/76 70/234/20 69/229/2
f 103/232/78 104/226/74 72/225/13
f 103/232/78 72/225/13 71/233/21
f 38/251/8 39/254/61 93/256/86
f 38/251/8 93/256/86 92/252/85
f 105/217/69 106/236/79 74/235/24
f 105/217/69 74/235/24 73/220/71
