# Blender v2.79 (sub 0) OBJ File: ''
# www.blender.org
o Platinum_Piece_Untitled.004
v 0.583964 0.050000 -0.146550
v -0.126681 0.050000 -0.629538
v 0.126681 0.050000 0.629538
v -0.583964 0.050000 0.146550
v 0.583964 0.050000 0.146550
v -0.583964 0.050000 -0.146550
v 0.126681 0.050000 -0.629538
v -0.126681 0.050000 0.629538
v 0.083650 0.050000 0.529538
v 0.483964 0.050000 0.106721
v -0.083650 0.050000 -0.529538
v -0.483964 0.050000 -0.106721
v 0.483965 0.050000 -0.106720
v 0.083650 0.050000 -0.529538
v -0.483964 0.050000 0.106720
v -0.083650 0.050000 0.529538
v 0.583964 -0.050000 -0.146550
v -0.126681 -0.050000 -0.629538
v 0.126681 -0.050000 0.629538
v -0.583964 -0.050000 0.146550
v 0.583964 -0.050000 0.146550
v -0.583964 -0.050000 -0.146550
v 0.126681 -0.050000 -0.629538
v -0.126681 -0.050000 0.629538
v 0.083650 -0.050000 0.529538
v 0.483964 -0.050000 0.106721
v -0.083650 -0.050000 -0.529538
v -0.483964 -0.050000 -0.106721
v 0.483964 -0.050000 -0.106720
v 0.083650 -0.050000 -0.529538
v -0.483965 -0.050000 0.106720
v -0.083650 -0.050000 0.529538
v 0.083650 0.045000 0.529538
v 0.483964 0.045000 0.106721
v -0.083650 0.045000 -0.529538
v -0.483964 0.045000 -0.106721
v 0.483965 0.045000 -0.106720
v 0.083650 0.045000 -0.529538
v -0.483964 0.045000 0.106720
v -0.083650 0.045000 0.529538
v 0.083650 -0.045000 0.529538
v 0.483964 -0.045000 0.106721
v -0.083650 -0.045000 -0.529538
v -0.483964 -0.045000 -0.106721
v 0.483964 -0.045000 -0.106720
v 0.083650 -0.045000 -0.529538
v -0.483965 -0.045000 0.106720
v -0.083650 -0.045000 0.529538
v 0.126681 0.050000 0.629538
v 0.126681 0.050000 0.629538
v 0.583964 0.050000 0.146550
v 0.583964 0.050000 0.146550
v 0.483964 0.050000 0.106721
v 0.483964 0.050000 0.106721
v 0.083650 0.050000 0.529538
v 0.083650 0.050000 0.529538
v -0.126681 0.050000 -0.629538
v -0.126681 0.050000 -0.629538
v -0.583964 0.050000 -0.146550
v -0.583964 0.050000 -0.146550
v -0.483964 0.050000 -0.106721
v -0.483964 0.050000 -0.106721
v -0.083650 0.050000 -0.529538
v -0.083650 0.050000 -0.529538
v 0.083650 0.050000 -0.529538
v 0.083650 0.050000 -0.529538
v 0.483965 0.050000 -0.106720
v 0.483965 0.050000 -0.106720
v 0.583964 0.050000 -0.146550
v 0.583964 0.050000 -0.146550
v 0.126681 0.050000 -0.629538
v 0.126681 0.050000 -0.629538
v -0.083650 0.050000 0.529538
v -0.083650 0.050000 0.529538
v -0.483964 0.050000 0.106720
v -0.483964 0.050000 0.106720
v -0.583964 0.050000 0.146550
v -0.583964 0.050000 0.146550
v -0.126681 0.050000 0.629538
v -0.126681 0.050000 0.629538
v 0.583964 -0.050000 0.146550
v 0.583964 -0.050000 0.146550
v 0.126681 -0.050000 0.629538
v 0.126681 -0.050000 0.629538
v 0.083650 -0.050000 0.529538
v 0.083650 -0.050000 0.529538
v 0.483964 -0.050000 0.106721
v 0.483964 -0.050000 0.106721
v -0.083650 -0.050000 -0.529538
v -0.083650 -0.050000 -0.529538
v -0.483964 -0.050000 -0.106721
v -0.483964 -0.050000 -0.106721
v -0.583964 -0.050000 -0.146550
v -0.583964 -0.050000 -0.146550
v -0.126681 -0.050000 -0.629538
v -0.126681 -0.050000 -0.629538
v 0.126681 -0.050000 -0.629538
v 0.126681 -0.050000 -0.629538
v 0.583964 -0.050000 -0.146550
v 0.583964 -0.050000 -0.146550
v 0.483964 -0.050000 -0.106720
v 0.483964 -0.050000 -0.106720
v 0.083650 -0.050000 -0.529538
v 0.083650 -0.050000 -0.529538
v -0.126681 -0.050000 0.629538
v -0.126681 -0.050000 0.629538
v -0.583964 -0.050000 0.146550
v -0.583964 -0.050000 0.146550
v -0.483965 -0.050000 0.106720
v -0.483965 -0.050000 0.106720
v -0.083650 -0.050000 0.529538
v -0.083650 -0.050000 0.529538
v 0.483965 0.045000 -0.106720
v 0.483965 0.045000 -0.106720
v 0.083650 0.045000 -0.529538
v 0.083650 0.045000 -0.529538
v -0.483964 0.045000 -0.106721
v -0.483964 0.045000 -0.106721
v -0.483964 0.045000 0.106720
v -0.483964 0.045000 0.106720
v -0.083650 0.045000 0.529538
v -0.083650 0.045000 0.529538
v 0.083650 0.045000 0.529538
v 0.083650 0.045000 0.529538
v -0.083650 0.045000 -0.529538
v -0.083650 0.045000 -0.529538
v 0.483964 0.045000 0.106721
v 0.483964 0.045000 0.106721
v -0.483964 -0.045000 -0.106721
v -0.483964 -0.045000 -0.106721
v -0.083650 -0.045000 -0.529538
v -0.083650 -0.045000 -0.529538
v 0.083650 -0.045000 -0.529538
v 0.083650 -0.045000 -0.529538
v -0.483965 -0.045000 0.106720
v -0.483965 -0.045000 0.106720
v 0.483964 -0.045000 0.106721
v 0.483964 -0.045000 0.106721
v 0.083650 -0.045000 0.529538
v 0.083650 -0.045000 0.529538
v -0.083650 -0.045000 0.529538
v -0.083650 -0.045000 0.529538
v 0.483964 -0.045000 -0.106720
v 0.483964 -0.045000 -0.106720
vt 0.725121 0.814349
vt 0.787307 0.880651
vt 0.719366 0.828075
vt 0.773739 0.886078
vt 0.689087 0.986364
vt 0.626925 0.920117
vt 0.694857 0.972671
vt 0.640491 0.914688
vt 0.787045 0.921323
vt 0.718196 0.972851
vt 0.773534 0.915711
vt 0.723869 0.986528
vt 0.627185 0.879446
vt 0.696043 0.827931
vt 0.640697 0.885058
vt 0.690384 0.814288
vt 0.787728 0.734881
vt 0.725126 0.800708
vt 0.719422 0.786967
vt 0.774214 0.729340
vt 0.627494 0.694425
vt 0.695794 0.642355
vt 0.641008 0.699967
vt 0.690080 0.628646
vt 0.787632 0.694166
vt 0.719130 0.642226
vt 0.724847 0.628554
vt 0.774079 0.699680
vt 0.627590 0.735139
vt 0.696097 0.787061
vt 0.690386 0.800701
vt 0.641143 0.729623
vt 0.725121 0.814349
vt 0.815676 0.800779
vt 0.815668 0.814393
vt 0.725126 0.800708
vt 0.559935 0.814316
vt 0.469387 0.814327
vt 0.469385 0.800713
vt 0.559934 0.800702
vt 0.855570 0.814418
vt 0.946127 0.800862
vt 0.946119 0.814476
vt 0.855579 0.800804
vt 0.690384 0.814288
vt 0.599838 0.814312
vt 0.599836 0.800698
vt 0.690386 0.800701
vt 0.980611 0.814498
vt 0.946119 0.814476
vt 0.946127 0.800862
vt 0.980620 0.800884
vt 0.815668 0.814393
vt 0.855579 0.800804
vt 0.855570 0.814418
vt 0.815676 0.800779
vt 0.599838 0.814312
vt 0.559935 0.814316
vt 0.559934 0.800702
vt 0.599836 0.800698
vt 0.725121 0.814349
vt 0.690384 0.814288
vt 0.690386 0.800701
vt 0.725126 0.800708
vt 0.717877 0.972262
vt 0.641093 0.914387
vt 0.772931 0.915418
vt 0.641300 0.885351
vt 0.773138 0.886378
vt 0.719028 0.828653
vt 0.696361 0.828518
vt 0.695196 0.972095
vt 0.718800 0.642807
vt 0.641614 0.700256
vt 0.696118 0.642940
vt 0.773483 0.699989
vt 0.641740 0.729314
vt 0.773608 0.729051
vt 0.719099 0.786379
vt 0.696425 0.786481
vt 0.773138 0.886378
vt 0.719366 0.828075
vt 0.773739 0.886078
vt 0.719028 0.828653
vt 0.694857 0.972671
vt 0.640491 0.914688
vt 0.641093 0.914387
vt 0.695196 0.972095
vt 0.773534 0.915711
vt 0.718196 0.972851
vt 0.717877 0.972262
vt 0.772931 0.915418
vt 0.640697 0.885058
vt 0.696043 0.827931
vt 0.696361 0.828518
vt 0.641300 0.885351
vt 0.718196 0.972851
vt 0.694857 0.972671
vt 0.695196 0.972095
vt 0.717877 0.972262
vt 0.773739 0.886078
vt 0.773534 0.915711
vt 0.772931 0.915418
vt 0.773138 0.886378
vt 0.640697 0.885058
vt 0.641093 0.914387
vt 0.640491 0.914688
vt 0.641300 0.885351
vt 0.719099 0.786379
vt 0.773608 0.729051
vt 0.774214 0.729340
vt 0.719422 0.786967
vt 0.696043 0.827931
vt 0.719366 0.828075
vt 0.719028 0.828653
vt 0.696361 0.828518
vt 0.696118 0.642940
vt 0.641614 0.700256
vt 0.641008 0.699967
vt 0.695794 0.642355
vt 0.773483 0.699989
vt 0.718800 0.642807
vt 0.719130 0.642226
vt 0.774079 0.699680
vt 0.641740 0.729314
vt 0.696425 0.786481
vt 0.696097 0.787061
vt 0.641143 0.729623
vt 0.718800 0.642807
vt 0.696118 0.642940
vt 0.695794 0.642355
vt 0.719130 0.642226
vt 0.773608 0.729051
vt 0.773483 0.699989
vt 0.774079 0.699680
vt 0.774214 0.729340
vt 0.641740 0.729314
vt 0.641008 0.699967
vt 0.641614 0.700256
vt 0.641143 0.729623
vt 0.696425 0.786481
vt 0.719099 0.786379
vt 0.719422 0.786967
vt 0.696097 0.787061
vn 0.0000 1.0000 -0.0000
vn -0.0000 -1.0000 0.0000
vn 0.7262 0.0000 0.6875
vn -0.7262 -0.0000 -0.6875
vn 0.7262 -0.0000 -0.6875
vn -0.7262 0.0000 0.6875
vn -0.0000 0.0000 -1.0000
vn 1.0000 0.0000 0.0000
vn -1.0000 0.0000 0.0000
vn 0.0000 0.0000 1.0000
s 1
f 49/1/1 51/2/1 55/3/1
f 53/4/1 55/3/1 51/2/1
f 57/5/1 59/6/1 63/7/1
f 63/7/1 59/6/1 61/8/1
f 69/9/1 65/10/1 67/11/1
f 65/10/1 69/9/1 71/12/1
f 77/13/1 73/14/1 75/15/1
f 73/14/1 77/13/1 79/16/1
f 71/12/1 63/7/1 65/10/1
f 63/7/1 71/12/1 57/5/1
f 51/2/1 67/11/1 53/4/1
f 67/11/1 51/2/1 69/9/1
f 75/15/1 61/8/1 77/13/1
f 77/13/1 61/8/1 59/6/1
f 49/1/1 73/14/1 79/16/1
f 73/14/1 49/1/1 55/3/1
f 81/17/2 83/18/2 85/19/2
f 81/17/2 85/19/2 87/20/2
f 93/21/2 89/22/2 91/23/2
f 89/22/2 93/21/2 95/24/2
f 99/25/2 103/26/2 97/27/2
f 103/26/2 99/25/2 101/28/2
f 107/29/2 111/30/2 105/31/2
f 111/30/2 107/29/2 109/32/2
f 97/27/2 89/22/2 95/24/2
f 89/22/2 97/27/2 103/26/2
f 99/25/2 87/20/2 101/28/2
f 99/25/2 81/17/2 87/20/2
f 93/21/2 109/32/2 107/29/2
f 109/32/2 93/21/2 91/23/2
f 111/30/2 85/19/2 83/18/2
f 111/30/2 83/18/2 105/31/2
f 50/33/3 82/34/3 52/35/3
f 82/34/3 50/33/3 84/36/3
f 60/37/4 58/38/4 96/39/4
f 60/37/4 96/39/4 94/40/4
f 70/41/5 98/42/5 72/43/5
f 98/42/5 70/41/5 100/44/5
f 80/45/6 78/46/6 108/47/6
f 80/45/6 108/47/6 106/48/6
f 2/49/7 7/50/7 23/51/7
f 2/49/7 23/51/7 18/52/7
f 5/53/8 17/54/8 1/55/8
f 17/54/8 5/53/8 21/56/8
f 4/57/9 6/58/9 22/59/9
f 4/57/9 22/59/9 20/60/9
f 3/61/10 8/62/10 24/63/10
f 3/61/10 24/63/10 19/64/10
f 115/65/1 117/66/1 113/67/1
f 119/68/1 127/69/1 117/66/1
f 123/70/1 119/68/1 121/71/1
f 117/66/1 115/65/1 125/72/1
f 127/69/1 119/68/1 123/70/1
f 117/66/1 127/69/1 113/67/1
f 133/73/2 129/74/2 131/75/2
f 129/74/2 143/76/2 135/77/2
f 135/77/2 137/78/2 139/79/2
f 135/77/2 139/79/2 141/80/2
f 143/76/2 129/74/2 133/73/2
f 137/78/2 135/77/2 143/76/2
f 128/81/4 56/82/4 54/83/4
f 56/82/4 128/81/4 124/84/4
f 64/85/3 62/86/3 118/87/3
f 64/85/3 118/87/3 126/88/3
f 68/89/6 66/90/6 116/91/6
f 68/89/6 116/91/6 114/92/6
f 76/93/5 74/94/5 122/95/5
f 76/93/5 122/95/5 120/96/5
f 14/97/10 11/98/10 35/99/10
f 14/97/10 35/99/10 38/100/10
f 10/101/9 13/102/9 37/103/9
f 10/101/9 37/103/9 34/104/9
f 15/105/8 36/106/8 12/107/8
f 36/106/8 15/105/8 39/108/8
f 140/109/4 138/110/4 88/111/4
f 140/109/4 88/111/4 86/112/4
f 16/113/7 9/114/7 33/115/7
f 16/113/7 33/115/7 40/116/7
f 132/117/3 130/118/3 92/119/3
f 132/117/3 92/119/3 90/120/3
f 144/121/6 134/122/6 104/123/6
f 144/121/6 104/123/6 102/124/6
f 136/125/5 142/126/5 112/127/5
f 136/125/5 112/127/5 110/128/5
f 46/129/10 43/130/10 27/131/10
f 46/129/10 27/131/10 30/132/10
f 42/133/9 45/134/9 29/135/9
f 42/133/9 29/135/9 26/136/9
f 47/137/8 28/138/8 44/139/8
f 28/138/8 47/137/8 31/140/8
f 48/141/7 41/142/7 25/143/7
f 48/141/7 25/143/7 32/144/7
