# Blender v2.79 (sub 0) OBJ File: ''
# www.blender.org
o Silver_Piece_Untitled
v 0.000000 0.050000 -0.727432
v -0.629975 0.050000 0.363716
v 0.629975 0.050000 0.363716
v -0.456769 0.050000 0.263716
v 0.000000 0.050000 -0.527432
v 0.456769 0.050000 0.263716
v 0.000000 -0.050000 -0.727432
v -0.629975 -0.050000 0.363716
v 0.629975 -0.050000 0.363716
v -0.456769 -0.050000 0.263716
v 0.000000 -0.050000 -0.527432
v 0.456769 -0.050000 0.263716
v -0.456769 0.045000 0.263716
v 0.000000 0.045000 -0.527432
v 0.456769 0.045000 0.263716
v -0.456769 -0.045000 0.263716
v 0.000000 -0.045000 -0.527432
v 0.456769 -0.045000 0.263716
v 0.000000 0.050000 -0.727432
v 0.000000 0.050000 -0.727432
v -0.629975 0.050000 0.363716
v -0.629975 0.050000 0.363716
v -0.456769 0.050000 0.263716
v -0.456769 0.050000 0.263716
v 0.000000 0.050000 -0.527432
v 0.000000 0.050000 -0.527432
v 0.629975 0.050000 0.363716
v 0.629975 0.050000 0.363716
v 0.456769 0.050000 0.263716
v 0.456769 0.050000 0.263716
v 0.000000 0.045000 -0.527432
v 0.000000 0.045000 -0.527432
v 0.456769 0.045000 0.263716
v 0.456769 0.045000 0.263716
v 0.000000 -0.050000 -0.527432
v 0.000000 -0.050000 -0.527432
v -0.456769 -0.050000 0.263716
v -0.456769 -0.050000 0.263716
v -0.629975 -0.050000 0.363716
v -0.629975 -0.050000 0.363716
v 0.000000 -0.050000 -0.727432
v 0.000000 -0.050000 -0.727432
v 0.456769 -0.050000 0.263716
v 0.456769 -0.050000 0.263716
v 0.629975 -0.050000 0.363716
v 0.629975 -0.050000 0.363716
v -0.456769 0.045000 0.263716
v -0.456769 0.045000 0.263716
v -0.456769 -0.045000 0.263716
v -0.456769 -0.045000 0.263716
v 0.000000 -0.045000 -0.527432
v 0.000000 -0.045000 -0.527432
v 0.456769 -0.045000 0.263716
v 0.456769 -0.045000 0.263716
vt 0.378344 0.505434
vt 0.464481 0.626108
vt 0.464553 0.652687
vt 0.401400 0.518708
vt 0.548839 0.504533
vt 0.525849 0.517865
vt 0.525849 0.517865
vt 0.464481 0.626108
vt 0.464393 0.625463
vt 0.525330 0.518260
vt 0.378256 0.491907
vt 0.463155 0.370326
vt 0.401175 0.478387
vt 0.462932 0.343758
vt 0.548824 0.491021
vt 0.525703 0.477949
vt 0.207919 0.493037
vt 0.378256 0.491907
vt 0.208008 0.506556
vt 0.378344 0.505434
vt 0.378256 0.491907
vt 0.548824 0.491021
vt 0.378344 0.505434
vt 0.548839 0.504533
vt 0.548824 0.491021
vt 0.719176 0.491135
vt 0.548839 0.504533
vt 0.719167 0.504654
vt 0.402007 0.518947
vt 0.525330 0.518260
vt 0.464393 0.625463
vt 0.401682 0.477975
vt 0.463239 0.370972
vt 0.525107 0.477689
vt 0.401682 0.477975
vt 0.463155 0.370326
vt 0.463239 0.370972
vt 0.401175 0.478387
vt 0.401682 0.477975
vt 0.525107 0.477689
vt 0.525703 0.477949
vt 0.401175 0.478387
vt 0.525107 0.477689
vt 0.463239 0.370972
vt 0.463155 0.370326
vt 0.525703 0.477949
vt 0.464481 0.626108
vt 0.401400 0.518708
vt 0.402007 0.518947
vt 0.464393 0.625463
vt 0.401400 0.518708
vt 0.525849 0.517865
vt 0.525330 0.518260
vt 0.402007 0.518947
vn -0.0000 1.0000 -0.0000
vn -0.8660 0.0000 0.5000
vn 0.0000 -1.0000 0.0000
vn -0.8660 0.0000 -0.5000
vn 0.0000 0.0000 1.0000
vn 0.8660 0.0000 -0.5000
vn 0.8660 0.0000 0.5000
vn 0.0000 0.0000 -1.0000
s 1
f 21/1/1 25/2/1 19/3/1
f 25/2/1 21/1/1 23/4/1
f 27/5/1 23/4/1 21/1/1
f 23/4/1 27/5/1 29/6/1
f 27/5/1 19/3/1 25/2/1
f 27/5/1 25/2/1 29/6/1
f 30/7/2 26/8/2 31/9/2
f 30/7/2 31/9/2 33/10/2
f 39/11/3 35/12/3 37/13/3
f 35/12/3 39/11/3 41/14/3
f 45/15/3 37/13/3 43/16/3
f 37/13/3 45/15/3 39/11/3
f 41/14/3 45/15/3 35/12/3
f 35/12/3 45/15/3 43/16/3
f 42/17/4 40/18/4 20/19/4
f 22/20/4 20/19/4 40/18/4
f 8/21/5 46/22/5 2/23/5
f 28/24/5 2/23/5 46/22/5
f 9/25/6 7/26/6 3/27/6
f 1/28/6 3/27/6 7/26/6
f 47/29/1 34/30/1 32/31/1
f 49/32/3 51/33/3 53/34/3
f 50/35/7 36/36/7 52/37/7
f 36/36/7 50/35/7 38/38/7
f 16/39/8 54/40/8 44/41/8
f 16/39/8 44/41/8 10/42/8
f 18/43/2 17/44/2 11/45/2
f 18/43/2 11/45/2 12/46/2
f 5/47/7 24/48/7 48/49/7
f 5/47/7 48/49/7 14/50/7
f 4/51/8 6/52/8 15/53/8
f 4/51/8 15/53/8 13/54/8
